# xmcd
#
# Track frame offsets:
#	150
#	12201
#	26684
#	50842
#	62372
#	71660
#	85506
#	96630
#	110434
#	126192
#	150055
#
# Disc length: 2129 seconds
#
# Revision: 1
# Processed by: cddbd v1.5.2PL0 Copyright (c) Steve Scherf et al.
# Submitted via: EZCDAudioConverter 2.0.7.1
#
DISCID=85084f0b
DTITLE=Kahulanui - Hula Ku`i
DYEAR=2012
DGENRE=
TTITLE0=Ku'u Home I Waimanalo
TTITLE1=Na Papa He'e Nalu 
TTITLE2=Noho Paipai - Ta Ha Ua La
TTITLE3=Lava 
TTITLE4=Kalena Kai 
TTITLE5=Hula Ku'i 
TTITLE6=Na Ka Pueo
TTITLE7=Papalina Lahilahi 
TTITLE8=Ka Mea U'i 
TTITLE9=Nani Waimea /Nani Wai'ale'ale
TTITLE10=Not Pau 
EXTD=
EXTT0=
EXTT1=
EXTT2=
EXTT3=
EXTT4=
EXTT5=
EXTT6=
EXTT7=
EXTT8=
EXTT9=
EXTT10=
PLAYORDER=
